# xmcd
#
# Track frame offsets:
# 150
# 18878
# 34681
# 51350
# 67418
# 84659
# 103544
# 123520
# 143471
# 160375
# 176604
# 195597
# 213949
# 228718
# 250303
# 266236
# 286344
# 307888
# 324240
#
# Disc length: 4582 seconds
#
#
# Revision: 0
# Processed by: cddbd v1.5.1PL0 Copyright (c) Steve Scherf et al.
# Submitted via: FreeRIP 2.90 
#
DISCID=1211e413
DTITLE=Enrique Iglesias - Greatest Hits 2003
DYEAR=2003
DGENRE=Blues
TTITLE0=Love to see you cry
TTITLE1=Escape
TTITLE2=Be with you
TTITLE3=Rhythm Divine
TTITLE4=Don't turn off the light
TTITLE5=Sad eyes
TTITLE6=Hero
TTITLE7=Could I have this kiss forever
TTITLE8=I will survive
TTITLE9=Bailamos
TTITLE10=One night stand
TTITLE11=Alabao
TTITLE12=Maybe
TTITLE13=If the world crashes down
TTITLE14=Ritmo Total (Rhythm Divine)
TTITLE15=I have always loved you
TTITLE16=I'm your man
TTITLE17=She be the one
TTITLE18=Hero (Metromix)
EXTD=
EXTT0=
EXTT1=
EXTT2=
EXTT3=
EXTT4=
EXTT5=
EXTT6=
EXTT7=
EXTT8=
EXTT9=
EXTT10=
EXTT11=
EXTT12=
EXTT13=
EXTT14=
EXTT15=
EXTT16=
EXTT17=
EXTT18=
PLAYORDER=
